<svg xmlns="http://www.w3.org/2000/svg" width="1002.854" height="793.294" viewBox="0 0 1002.854 793.294">
  <g id="Group_891" data-name="Group 891" transform="translate(-754.471 -2728.183)">
    <line id="Line_37" data-name="Line 37" x2="41.444" y2="79.705" transform="translate(1118.527 2792.484)" fill="none" stroke="#fff" stroke-miterlimit="10" stroke-width="2"/>
    <text id="Bounties_Promotions_5_" data-name="Bounties &amp; Promotions 5%" transform="translate(964.272 2793.413)" fill="#fff" font-size="11.517" font-family="Nunito-Bold, Nunito" font-weight="700"><tspan x="0" y="0">Bounties &amp; Promotions 5%</tspan></text>
    <text id="Marketing_Partnerships_10_" data-name="Marketing &amp; Partnerships 10%" transform="translate(803.058 2913.903)" fill="#fff" font-size="11.517" font-family="Nunito-Bold, Nunito" font-weight="700"><tspan x="0" y="0">Marketing &amp; Partnerships 10%</tspan></text>
    <text id="Legal_Advisors_5_" data-name="Legal &amp; Advisors 5%" transform="translate(1129.637 2740.183)" fill="#fff" font-size="11.517" font-family="Nunito-Bold, Nunito" font-weight="700"><tspan x="0" y="0">Legal &amp; Advisors 5%</tspan></text>
    <line id="Line_38" data-name="Line 38" x2="12.614" y2="90.148" transform="translate(1236.357 2754.042)" fill="none" stroke="#fff" stroke-miterlimit="10" stroke-width="2"/>
    <line id="Line_39" data-name="Line 39" x2="74.849" y2="53.488" transform="translate(979.122 2911.702)" fill="none" stroke="#fff" stroke-miterlimit="10" stroke-width="2"/>
    <text id="Strategic_Exchanges_10_" data-name="Strategic/Exchanges 10%" transform="translate(754.471 3144.209)" fill="#fff" font-size="11.517" font-family="Nunito-Bold, Nunito" font-weight="700"><tspan x="0" y="0">Strategic/Exchanges 10%</tspan></text>
    <line id="Line_40" data-name="Line 40" x2="105.424" transform="translate(905.547 3141.483)" fill="none" stroke="#fff" stroke-miterlimit="10" stroke-width="2"/>
    <line id="Line_41" data-name="Line 41" y1="52" x2="75" transform="translate(979.971 3316.189)" fill="none" stroke="#fff" stroke-miterlimit="10" stroke-width="2"/>
    <text id="Operations_10_" data-name="Operations 10%" transform="translate(880.396 3376.849)" fill="#fff" font-size="11.517" font-family="Nunito-Bold, Nunito" font-weight="700"><tspan x="0" y="0">Operations 10%</tspan></text>
    <text id="Team_10_" data-name="Team 10%" transform="translate(1107.456 3517.477)" fill="#fff" font-size="11.517" font-family="Nunito-Bold, Nunito" font-weight="700"><tspan x="0" y="0">Team 10%</tspan></text>
    <line id="Line_42" data-name="Line 42" y1="90.834" x2="34.465" transform="translate(1175.506 3422.189)" fill="none" stroke="#fff" stroke-miterlimit="10" stroke-width="2"/>
    <line id="Line_43" data-name="Line 43" x1="53.259" y1="70.514" transform="translate(1472.971 3387.189)" fill="none" stroke="#fff" stroke-miterlimit="10" stroke-width="2"/>
    <text id="Platform_Development_20_" data-name="Platform Development 20%" transform="translate(1537.897 3463.304)" fill="#fff" font-size="11.517" font-family="Nunito-Bold, Nunito" font-weight="700"><tspan x="0" y="0">Platform Development 20%</tspan></text>
    <text id="Presale_Public_Sale_30_" data-name="Presale &amp; Public Sale 30%" transform="translate(1618.324 2932.324)" fill="#fff" font-size="11.517" font-family="Nunito-Bold, Nunito" font-weight="700"><tspan x="0" y="0">Presale &amp; Public Sale 30%</tspan></text>
    <line id="Line_44" data-name="Line 44" y1="36" x2="51" transform="translate(1552.971 2932.189)" fill="none" stroke="#fff" stroke-miterlimit="10" stroke-width="2"/>
    <g id="Group_890" data-name="Group 890">
      <path id="Path_812" data-name="Path 812" d="M1124.97,2903.159a294.412,294.412,0,0,1,84.1-42.46" fill="none" stroke="#d2fc5e" stroke-miterlimit="10" stroke-width="60"/>
      <path id="Path_813" data-name="Path 813" d="M1018.413,3047.689a296.1,296.1,0,0,1,106.557-144.53" fill="none" stroke="#ff73f8" stroke-miterlimit="10" stroke-width="60"/>
      <path id="Path_814" data-name="Path 814" d="M1016.342,3230.713a297.027,297.027,0,0,1,2.071-183.024" fill="none" stroke="#ff1c5d" stroke-miterlimit="10" stroke-width="60"/>
      <path id="Path_815" data-name="Path 815" d="M1121.768,3379.251a295.944,295.944,0,0,1-105.426-148.538" fill="none" stroke="#ff7728" stroke-miterlimit="10" stroke-width="60"/>
      <path id="Path_816" data-name="Path 816" d="M1298.315,3437.789a294.092,294.092,0,0,1-176.547-58.538" fill="none" stroke="#f9c038" stroke-miterlimit="10" stroke-width="60"/>
      <path id="Path_817" data-name="Path 817" d="M1582.1,3224.709c-35.646,123.089-149.2,213.08-283.781,213.08" fill="none" stroke="#6649f5" stroke-miterlimit="10" stroke-width="60"/>
      <path id="Path_818" data-name="Path 818" d="M1298.315,2846.978c163.148,0,295.405,132.258,295.405,295.405a295.527,295.527,0,0,1-11.624,82.326" fill="none" stroke="#00ddf6" stroke-miterlimit="10" stroke-width="60"/>
    </g>
    <path id="Path_819" data-name="Path 819" d="M1209.067,2860.7a295.261,295.261,0,0,1,89.248-13.721" fill="none" stroke="#5b74f6" stroke-miterlimit="10" stroke-width="60"/>
    <circle id="Ellipse_115" data-name="Ellipse 115" cx="1.5" cy="1.5" r="1.5" transform="translate(1234.971 2753.189)" fill="#fff" stroke="#fff" stroke-miterlimit="10" stroke-width="2"/>
    <circle id="Ellipse_116" data-name="Ellipse 116" cx="1.5" cy="1.5" r="1.5" transform="translate(1116.971 2791.189)" fill="#fff" stroke="#fff" stroke-miterlimit="10" stroke-width="2"/>
    <circle id="Ellipse_117" data-name="Ellipse 117" cx="1.5" cy="1.5" r="1.5" transform="translate(1601.971 2931.19)" fill="#fff" stroke="#fff" stroke-miterlimit="10" stroke-width="2"/>
    <circle id="Ellipse_118" data-name="Ellipse 118" cx="1.5" cy="1.5" r="1.5" transform="translate(1524.971 3456.19)" fill="#fff" stroke="#fff" stroke-miterlimit="10" stroke-width="2"/>
    <circle id="Ellipse_119" data-name="Ellipse 119" cx="1.5" cy="1.5" r="1.5" transform="translate(1173.971 3511.19)" fill="#fff" stroke="#fff" stroke-miterlimit="10" stroke-width="2"/>
    <circle id="Ellipse_120" data-name="Ellipse 120" cx="1.5" cy="1.5" r="1.5" transform="translate(977.971 3367.19)" fill="#fff" stroke="#fff" stroke-miterlimit="10" stroke-width="2"/>
    <circle id="Ellipse_121" data-name="Ellipse 121" cx="1.5" cy="1.5" r="1.5" transform="translate(903.971 3139.983)" fill="#fff" stroke="#fff" stroke-miterlimit="10" stroke-width="2"/>
  </g>
</svg>
